<?xml version="1.0" encoding="utf-8"?>
<svg version="1.1" id="Layer_1" xmlns="http://www.w3.org/2000/svg" xmlns:xlink="http://www.w3.org/1999/xlink" x="0px" y="0px"
	 viewBox="0 0 1594 1670.756" enable-background="new 0 0 1594 1670.756" xml:space="preserve">
<path d="M1559.792,56.854c-1.661-3.844-6.349-4.394-9.899-5.304c1.339-3.014,2.639-6.041,3.71-9.175
	c-2.666-1.942-5.56-3.751-9.002-3.014c-18.762,19.232-8.077,11.802-19.396,25.746c-3.844,4.835-1.246,13.582-7.903,16.141
	c2.178-17.719,12.378-42.242,5.8-45.636c-14.993-2.792-11.155,19.11-49.298,85.133c-1.814,0.606-20.53,8.832-26.629,0.322
	c-9.193-14.009-8.734-40.855-33.649-34.64c-2.719,0.147-3.375,3.133-2.317,5.197c20.368,35.871,16.445,69.144,24.42,90.268
	c-1.701,4.327-4.327,8.197-7.555,11.52c-1.527,0.013-3.028,0.028-4.515,0.054c-1.045,1.486-2.21,2.906-2.96,4.554
	c-0.388,2.814,1.46,6.43-1.259,8.493c-20.32,16.781-39.934,22.892-67.23,46.066c-6.961,1.296-29.197,15.211-32.483,17.963
	c-5.291,0.75-8.761,5.17-13.663,6.791c-12.001,4.889-22.329,12.833-33.273,19.597c-5.908,3.804-9.845,10.234-16.383,12.993
	c-5.784,6.748-32.587,14.612-33.926,15.106c-26.89,9.89-17.486-2.046-68.384,20.584c-7.776,3.458-12.556,5.156-47.97,18.465
	c-46.292,17.398-13.741,14.648-61.186,15.231c5.653,0.281,11.359-0.041,16.971,0.911c-2.047,0.443-42.447,1.559-43.788,1.594
	c-4.796-0.026-8.747,3.041-13.194,4.313c-5.064,1.138-10.475,0.133-15.338,2.129c-15.205,6.129-10.129,0.98-34.318,16.288
	c-1.3,0.294-2.585,0.59-3.844,0.898c-4.193,3.375-8.975,6.001-12.699,9.926c-15.276,4.08-9.357,6.383-15.31,9.095
	c-4.353,2.88-9.965,3.295-13.783,7.046c-5.908-1.567-10.676,2.693-16.048,4.166c-3.175,0.469-6.39,0.175-9.551,0.188
	c0.896-5.01,5.264-7.983,7.929-12.002c3.309-4.193,5.01-9.296,7.515-13.958c4.138-8.238,1.983,4.206,11.453-25.946
	c2.836-10.154,9.565-8.777,15.003-60.184c-4.722-25.757-22.783-59.079-38.845-83.157c-2.572-5.411-3.563-11.412-4.595-17.266
	c-4.768-0.63-10.006,0.067-14.211-2.665c-7.193-3.764-12.471-10.596-20.361-13.114c-6.644-2.103-13.341-4.032-19.931-6.295
	c-6.175-2.062-12.632,0.482-18.873-0.924c-3.844-0.817-7.607,0.79-11.211,1.875c-4.729,1.366-6.791,6.175-9.564,9.738
	c-1.313,2.13-4.273,1.246-6.295,1.741c-0.389-1.447-0.737-2.893-1.045-4.34c-1.661,0.214-3.323,0.429-4.956,0.63
	c0.456,2.747,1.005,5.479,1.581,8.212c-0.576,0.361-1.755,1.058-2.33,1.406c-7.153-0.013-12.725,4.446-17.333,9.376
	c-3.576,0.589-6.483,2.799-9.51,4.567c-2.585,10.097-12.086,14.557-18.512,32.376c-1.889,4.701-1.486,10.046-4.193,14.466
	c-5.594,8.853,0.445,14.466-5.692,31.157c-2.397,6.269-0.455,13.019-1.192,19.503c-0.354,4.439-3.076,12.701,4.729,27.983
	c0.468,4.34,0.95,8.666,1.634,12.98c0.644,0.187,1.929,0.548,2.559,0.723c1.782,3.269,3.844,6.363,5.573,9.658
	c2.291,4.474,1.862,9.792,4.166,14.252c1.446,3.872,4.648,6.591,7.005,9.886c2.264,4.904,3.644,10.167,5.412,15.271
	c2.899,8.336,11.618,11.136-1.862,26.294c-11.936-4.241-7.794,1.1-27.392-2.049c-7.447,1.619-13.666-2.412-20.945-2.062
	c-6.416,0.308-4.017,0.779-8.992-2.457c-77-50.078-128.291-17.922-161.236-36.965c-6.269-3.496-13.824-4.568-19.329-9.337
	c-1.513-0.321-3.014-0.63-4.5-0.937c-3.228-2.585-7.662-2.291-11.105-4.461c-36.874-13.018-17.415-11.137-89.67-30.64
	c-13.231-3.572-26.421-7.609-38.863-13.418c-11.806-5.512-47.203-32.003-50.008-36.03c-0.858-0.281-2.546-0.844-3.403-1.125
	c-5.599-4.166-11.894-7.301-17.266-11.775c-47.354-25.359-37.958-23.658-52.2-33.876c-6.175-5.251-13.85-8.158-20.347-12.926
	c-1.339-0.999-22.506-16.33-25.075-17.119c-1.409-13.472-5.623-21.933-19.115-23.642c-9.099-9.325-1.876-16.98,0.737-30.166
	c5.482-39.869,28.295-69.384,30.795-75.146c3.215-6.637-11.678-10.2-20.24-3.081c-12.712,8.64-15.686,25.022-26.107,35.684
	c-38.939,16.087-50.486-44.904-90.858-81.173c-5.519-4.26-12.765,0.376-18.605-2.746c-3.818-1.086-9.739-2.304-12.002,1.969
	c14.703,33.161,15.919,32.428,22.436,50.177c-9.309-8.505-9.404-23.146-18.566-31.88c-3.416-2.813-11.533-3.885-12.377,1.889
	c0.072,7.585,11.964,23.498,11.641,33.93c-1.287-0.108-3.872-0.309-5.157-0.402c-3.416,3.522-3.978,9.912-0.281,13.435
	c10.665,12.308,7.884,24.268,28.236,41.538c17.368,16.329,21.135,30.49,42.878,56.273c4.956,5.439,7.916,12.417,13.288,17.521
	c5.772,5.437,10.648,11.706,15.457,17.976c1.593,1.782,1.084,4.461,0.308,6.497c-4.353,3.349-10.796,4.662-13.301,9.953
	c-0.601,4.558,9.687,18.704,30.005,20.856c5.947,0.697,10.568-3.697,16.154-4.608c1.661,3.001,4.3,5.157,7.033,7.139
	c3.617,2.384,4.554,7.193,8.398,9.337c6.255,3.416,8.773,10.703,15.029,14.159c6.215,6.268,12.872,12.202,18.432,19.088
	c6.456,4.26,12.122,9.618,17.842,14.802c10.997,8.279,23.267,14.749,33.876,23.576c15.363,11.498,41.47,32.985,72.414,44.15
	c23.03,7.066,65.091,42.388,118.344,81.053c17.876,10.052,70.328,33.003,74.168,34.077c12.872,8.011,27.875,12.525,39.676,22.263
	c12.146,9.351,16.626,33.449,54.598,88.661c4.045,3.857,5.023,9.47,7.046,14.454c3.867,9.525,10.842,17.4,15.433,26.547
	c5.248,10.456,3.536,22.292,4.009,33.754c1.645,39.887,11.168,79.535,10.725,119.414c-0.76,98.924-81.477,219.944,133.084,400.041
	c-5.366,6.691-175.842,140.067-158.817,344.761c2.241,13.868,1.945,28.828,9.299,41.279c14.036,13.959,30.327,9.53,39.168,1.606
	c14.33-12.929,3.856-26.205,2.865-58.998c-0.677-4.133-14.145-2.344,296.726-3.488c4.489-0.231,5.861,0.176-0.609,40.018
	c-3.754,23.498,26.302,40.162,46.565,19.786c21.025-31.903,32.343-225.972-151.674-385.044
	c215.498-193.812,134.3-293.492,122.354-410.842c-10.825-106.376-8.097-115.626-15.521-139.826
	c-4.655-15.233-2.629-34.85,3.297-49.614c16.647-41.474,14.611-20.009,48.092-108.843c8.521-11.937,31.104-26.097,43.347-29.884
	c2.755-2.223,41.293-22.172,42.636-23.146c22.81-14.312,62.681-51.602,118.158-84.174c11.975-5.987,25.182-9.054,37.171-15.042
	c21.54-9.899,66.179-45.471,75.468-49.065c7.099-5.439,14.412-10.583,21.539-15.994c0.001-0.001,38.765-35.148,38.765-35.148
	c14.519-8.777,22.961-22.828,38.699-35.921c6.418-5.339,11.948-5.042,13.271-8.094c1.493-3.446-1.101-6.409,1.737-9.807
	c2.138-2.561,5.183-3.942,6.84-6.954c11.469-20.846,17.492-19.869,35.683-63.745c4.188-15.373,26.452-59.877,27.259-61.242
	c2.773-5.103,3.39-11.158,6.818-15.927c2.814-3.804,3.712-8.559,5.975-12.658C1559.229,62.012,1561.118,59.413,1559.792,56.854z
	 M992.054,1514.55c-96.767,0.482-193.545,0.155-290.322,0.343c-11.279,2.832,19.481-85.224,29.838-102.509
	c3.739-0.631,220.156-0.233,226.695,0.02C964.871,1420.033,989.371,1478.015,992.054,1514.55z M925.248,1357.831
	c-52.462-0.245-105.002,0.105-157.498,0.339c-0.41-0.319-1.247-0.974-1.665-1.301c23.028-30.71,50.178-58.081,78.851-83.512
	C874.505,1298.653,902.075,1326.531,925.248,1357.831z M846.171,1206.254c-17.695-5.551-78.489-71.411-79.363-72.316
	c4.214-1.485,153.261-0.888,155.464-0.449C875.171,1186.433,859.2,1193.438,846.171,1206.254z M957.261,1079.1
	c-75.375,1.204-150.818,0.641-226.211,1.809c-25.901-45.005-25.379-87.277-26.884-97.76c0.594-0.259,1.774-0.751,2.378-1.002
	c1.769-0.023,226.226-2.04,273.491-2.748C992.885,977.499,969.259,1071.068,957.261,1079.1z M967.753,906.631
	c2.956,5.721,4.475,12.032,7.253,17.843c-8.214,0.165-258.542,1.362-261.922,0.629c4.015-13.885,9.955-22.59,13.112-30.194h235.999
	C963.843,898.902,966.012,902.679,967.753,906.631z"/>
</svg>
