<?xml version="1.0" encoding="utf-8"?>

<!DOCTYPE svg PUBLIC "-//W3C//DTD SVG 1.1//EN" "http://www.w3.org/Graphics/SVG/1.1/DTD/svg11.dtd">
<svg version="1.1" id="Layer_1" xmlns="http://www.w3.org/2000/svg" xmlns:xlink="http://www.w3.org/1999/xlink" x="0px" y="0px"
	 viewBox="226.6183 91.418 900.9477 1231.7157" enable-background="new 226.6183 91.418 900.9477 1231.7157" xml:space="preserve">
<path stroke="#000000" stroke-width="0.0938" d="M510.34,182.26c10.99-2.26,22.28-3.74,33.52-3.39c7.77,0.95,15.79,2.56,22.51,6.78
	c16.32,11.4,30.51,25.48,43.91,40.12c3.42,3.66,6.93,7.48,8.7599,12.23c2.09,5.68,2.1,12.17,5.67,17.27
	c2.79,4.16,7.2599,6.7,10.62,10.32c3.02,3.25,4,7.69,5.38,11.76c1.37,3.88,2.31,7.89,3.61,11.79c1.87,0.13,3.99,0.13,5.39-1.35
	c3.09-3.86,4.64-8.69,7.6-12.65c1.29-0.82,3.23-1.19,4.52-0.14c7.86,6.92,17.18,12.18,24.39,19.87c2.9,3.3,1.38,7.93,2.08,11.86
	c0.48,1.5,1.92,2.23,3.39,2.51c9.19,2.25,18.84,2.35,27.89,5.28c4.68,1.49,8.02,5.36,10.61,9.35c2.29,3.55,5.35,7.13,9.75,7.88
	c7.65,0.98,15.37-0.75,23.04,0.12c6.64,0.46,12.71,3.51,18.39,6.79c7.83,4.6,15.22,9.92,22.29,15.63c3.25,2.7,6.59,5.41,9.14,8.83
	c2.96,3.87,4.84,8.44,7.89,12.25c5.78,7.66,15.5,11.1,20.96,19.09c9.74,13.93,18.0699,28.78,26.53,43.5
	c29.18,52.06,55.43,106.09,73.66,163.04c7.33,22.23,14.3799,44.57,22.8,66.42c13.84,36.14,32.25,70.24,48.75,105.18
	c4.19,8.15,5.9,17.32,6.13,26.42c-0.08,4.11-0.54,8.81-3.74,11.78c-4.84,4.08-12.35,1.61-16.9,6.18
	c-0.01,9.98,5.83,18.97,5.66,28.98c-0.04,2.96-1.79,5.79-4.54,6.95c-6,2.63-12.93,0.79-18.96,3.2401c-3.13,1.17-3.78,4.86-3.58,7.81
	c0.49,8.7,3.08,17.22,2.58,25.99c-0.05,8.09-4.31,15.23-8.18,22.05c-10.71,18.18-23.21,35.22-35.26,52.52
	c-3,4.21-7.67,7.25-9.39,12.31c6.57,4.75,14.98,5.63,22.48,8.29c18.38,4.91,34.71,14.93,51.41,23.7
	c9.27,5.04,18.51,10.14,27.75,15.2599c6.59,3.55,12.9601,7.7001,20.23,9.8201c5.5601,1.9,12.4601,4.0399,14.4401,10.2899
	c0.52,4.8501-1.04,9.66-2,14.38c-5.13,20.3601-11.77,40.3101-18.8101,60.0901c-2.3099,6-4.24,12.21-7.3099,17.88
	c-2.61,3.73-7.6901,2.01-11.4901,2.5299c-2.3799,0.05-2.65,2.87-3.2,4.62c-4.57,19.3101-7.96,39.05-15.52,57.5
	c-3.17,7.52-7.11,15.1801-13.81,20.16c-9.68,7.77-22.17,10.85-34.31,11.78c-9.26,0.96-18.57,0.83-27.83,1.6899
	c-13.37,1.04-26.78,1.15-40.17,0.54c-13.76-0.54-27.56-1.29-41.16-3.53c-2.89-0.6699-6.41-0.9399-8.22-3.62
	c-2.51-3.48-2.23-8.0399-2.07-12.11c0.62-11.73,0.02-23.96,4.45-35.0699c3.03-7.13,11.31-8.3301,17.47-11.5
	c7.82-4.79,15.63-9.64,23.03-15.0801c4.28-3.2799,8.83-6.75,10.99-11.87c2.48-5.75,4.31-12.1499,3.36-18.4399
	c-1.81-2.9501-5.37-4.86-8.83-4.4401c-0.9901,4.7001-0.55,9.9501-3.29,14.12c-3.14,3.6101-8.18,1.4701-11.87,0.0601
	c-5.43-2.41-11.35-0.55-16.94,0.09c-27.85,4.15-55.81,7.9-83.97,8.9401c-13.22,0.3099-26.51,0.13-39.6-1.9401
	c3.58,6.28,7.16,12.6801,9.17,19.67c0.96,3.53,1.28,7.73-1.23,10.73c-4.03,5.28-10.81,7-16.76,9.15
	c-12.06,4.48-24.8,6.74-37.47,8.66c-9.83,1.58-20.06,1.7999-29.74-0.78c-3.22-0.97-6.68-2.2001-8.74-5.02
	c-2.37-3.1-2.36-7.45-5.06-10.3101c-2.5-0.98-5.17,0.1901-7.54,1.02c-5.8,2.3201-11.25,5.37-16.85,8.12
	c-8.85,4.54-15.74,12.36-25.25,15.75c-10.19,3.6001-21.09,4.4501-31.77,5.65c-24.63,2.14-49.39,2.79-74.1,1.97
	c-9.44-0.5199-18.98-0.5-28.27-2.47c-3.85-0.58-6.17-4.15-7.32-7.5499c-1.27-3.9701-1.8-8.29-0.93-12.39
	c1.06-5.12,6.5-7.9,7.56-13.03c1.64-7.0601,1.78-14.83,6.08-20.97c2.2-3.36,6.06-4.9301,9.65-6.3301
	c12.82-4.7799,26.34-7.23,39.61-10.35c-3.75-1.14-7.64,0.35-11.46,0c-11.75,0.09-23.43-4.3099-32.06-12.3
	c-12.67-11.5699-21.92-26.33-29.8-41.4299c-4.94-10.3101-10.57-21.01-10.22-32.76c0.01-7.28,2.35-14.5,6.62-20.4
	c5.62-7.94,12.87-14.53,18.72-22.28c6.32-8.06,16.42-12.51,21.61-21.5c3.72-6.09,0.42-13.08-1.24-19.26
	c-9.39-28.31-21.31-55.7-32.99-83.13c-7.65-17.64-15.34-35.27-23.42-52.71c-7.93-16.89-18.67-32.23-27.16-48.8199
	c-7.11-13.33-6.97-29.04-5.36-43.67c1.12-9.37,1.66-19.15,5.81-27.8c2.41-5.12,8.19-6.95,11.9-10.85
	c-15.46-6.26-31.95-9.36-47.9-14.08c-5.46-1.74-10.68-4.15-16.12-5.95c-2.83-0.96-5.85-3.21-5.7-6.52c-0.35-1.97,0.79-4.4-0.69-6.02
	c-5.77-1.28-12.28,0.9-17.61-2.2c-4.23-3.81-0.02-9.76-1.65-14.37c-3.67-4.35-10.66-2.08-14.61-5.9c-1.06-2.81,0.79-5.57,1.21-8.32
	c-3.54-0.87-9.22,0.1-10.65-4.24c-0.63-6.55,1.18-13.07,2.53-19.43c1.01-4.9,3.29-10.05,7.86-12.57c3.03-1.64,5.44,1.52,7.63,3.13
	c2.46-2.37,4.46-5.17,6.95-7.5c2.34-2.28,6.19-0.04,8.47-2.35c2.64-2.12,4.62-4.88,6.51-7.66c1.62-2.36,4.86-1.48,7.28-2.09
	c1.74-0.11,2.44-1.92,3.38-3.1c-4.21-1.8-9.4-2.58-12.08-6.7c-2.01-3.1-3.79-6.85-3.03-10.62c0.79-2.96,4.2-3.33,6.73-3.77
	c6.34-0.7,12.76-0.68,19.13-0.34c9.21,0.46,17.59,6.03,26.96,4.92c9.61-0.84,19.91,0.6,28.01,6.16c6.44,4.5,7.78,12.8,11.98,18.98
	c2.73,4.26,8.28,6,10.27,10.82c1.95,4.17-0.16,8.76,0.22,13.08c1.53,3.99,5.99,5.77,9.83,6.79c15.45,3.47,31.09,5.98,46.62,9.09
	c8.46,1.66,16.65,4.56,25.24,5.59c10.99,1.6,22.06-0.29,32.95-1.79c6.74-0.89,13.64-2.68,20.4-0.94c5.86,1.5,11.96,1.07,17.91,0.5
	c3.37-0.3,7.24-1.93,8.07-5.56c2.04-8.39,1.05-17.12,2.41-25.6c3.5-23.65,7.52-47.23,10.79-70.91c1.47-11.07,3.85-22.03,4.54-33.2
	c1.74-19.38-1.7-38.67-3.32-57.92c-0.63-4.96,1.71-9.49,2.85-14.17c-8.6,4.25-16.55,9.81-25.52,13.32
	c-3.25,1.26-7.18,2.22-10.28,0.06c-5.68-3.88-9.12-10.13-12.19-16.11c-0.97-1.58-1.19-3.4-0.88-5.2c-2.79-0.27-5.73-0.17-8.33-1.35
	c-1.89-1.28-3.45-2.97-5.28-4.31c-2.06,1.2-3.9,2.94-6.3,3.38c-2.06,0.02-3.49-1.48-4.75-2.88c-1.95-2.27-4.68-3.74-7.51-4.58
	c-2.42-0.87-3.92,1.71-5.48,3.08c-3.26,3.37-7.07,7.93-12.35,6.85c-6.12-1.28-10.2-6.66-13.62-11.48c-3.9-6.74-5.75-14.4-7.96-21.8
	c-1.26-3.84-0.57-8.11-2.36-11.79c-3.21-1-7.01-0.96-9.48-3.54c-3.41-3.43-5.76-7.73-8.22-11.85c-2.55-4.35-3.54-9.41-6.11-13.74
	c-2.7-4.82-9.76-3.81-12.49-8.61c-2.35-4.4-0.41-9.62-1.75-14.29c-4.9-1.49-9.7,2.86-14.52,0.85c-3.66-2.42-5.19-6.87-6.06-10.96
	c-0.37-3.01-0.14-6.93,2.92-8.49c-0.62-1.97-1.86-4.06-1.03-6.16c0.95-1.49,2.5-2.55,3.25-4.18c-0.05-1.64-0.36-3.27-0.28-4.91
	c0.52-2.43,2.78-3.93,3.74-6.14c-0.24-3.36-1.76-7.44,2-9.48c0.31-2.81,0.32-5.7,1.22-8.4c0.79-1.72,2.63-2.51,4.09-3.55
	c-0.31-1.59-0.69-3.16-1.08-4.73c1.1-1.87,3.05-2.09,5.05-1.9c1.37-1.95,2.63-4,3.41-6.27c1.48-3.63-0.56-7.85,1.56-11.32
	c2.26-3.57,6.82-4.5,9.57-7.57c3.09-3.49,4.45-8.12,7.39-11.7c2.59-3.2,7.3-3.72,9.61-7.22c2.05-2.85,3.78-6.46,7.37-7.63
	c6.82-2.09,14.14-1.74,20.93-3.97C505.6,188.46,505.56,183.16,510.34,182.26z"/>
</svg>
