<?xml version="1.0" encoding="utf-8"?>
<!-- Generator: Adobe Illustrator 16.0.0, SVG Export Plug-In . SVG Version: 6.00 Build 0)  -->
<!DOCTYPE svg PUBLIC "-//W3C//DTD SVG 1.1//EN" "http://www.w3.org/Graphics/SVG/1.1/DTD/svg11.dtd">
<svg version="1.1" id="Layer_1" xmlns="http://www.w3.org/2000/svg" xmlns:xlink="http://www.w3.org/1999/xlink" x="0px" y="0px"
	 width="982.608px" height="707.608px" viewBox="0 0 982.608 707.608" enable-background="new 0 0 982.608 707.608"
	 xml:space="preserve">
<g>
	<path stroke="#000000" stroke-width="0.9339" stroke-linecap="round" stroke-linejoin="round" d="M906.9,378.023
		c-9.105,12.417-18.211,24.834-27.316,37.251c-8.091,11.033-15.749,25.814-25.814,35.15c-23.977,22.239-47.053,44.135-68.975,68.373
		c-18.669,20.643-35.663,44.848-49.638,68.939c-4.983,8.591-9.967,17.182-14.95,25.772c-3.37,5.81,0.224,10.522,1.803,16.91
		c2.949,11.932-2.014,23.203-8.212,32.956c-5.525,8.692-11.051,17.386-16.576,26.078c-0.846,1.331-6.139,11.96-7.739,11.96
		c-3.767,0-7.532,0-11.299,0c-22.915,0-45.831,0-68.746,0c-82.722,0-165.444,0-248.166,0c-84.975,0-169.949,0-254.924,0
		c-25.732,0-51.463,0-77.195,0c-5.597,0-11.193,0-16.79,0c-4.748,0-4.233-20.874-4.543-25.37
		c-3.951-57.196,11.403-117.867,42.708-166.02c17.069-26.256,37.587-47.78,60.266-69.208c10.432-9.856,11.871-27.017,14-40.634
		c1.279-8.182,1.88-12.158,10.971-13.615c8.64-1.385,7.662-11.955,9.545-19.893c1.688-7.111,7.708-8.547,14.191-11.281
		c9.3-3.921,8.225-7.04,10.508-17.307c1.927-8.667,3.614-10.566-1.35-17.559c-4.807-6.771-10.242-13.375-14.351-20.602
		c-14.437-25.392-28.172-51.187-34.186-80.095c-5.955-28.626-7.516-57.946-0.383-86.518c6.773-27.13,18.147-58.135,39.304-77.586
		c23.479-21.586,47.945-35.429,78.686-44.079c28.93-8.14,59.477-4.573,88.571,0.138c28.161,4.56,58.053,17.405,81.691,33.036
		c20.42,13.503,55.905,33.968,48.514,63.159c-2.263,8.938-4.407,13.732-3.551,23.542c0.868,9.946,2.039,19.996,1.757,29.985
		c-0.28,9.9,1.376,19.567,1.097,29.345c-0.219,7.663-6.265,18.581-3.297,25.746c4.607,11.123,9.214,22.245,13.82,33.368
		c2.827,6.825,11.023,18.71,8.307,26.437c-3.5,9.956-18.26,7.023-20.56,17.09c-2.403,10.518,7.775,16.143-2.34,25.17
		c8.148,4.847,2.298,9.206-0.83,14.26c-4.776,7.715-2.319,13.207-1.251,21.571c2.192,17.164-10.743,27.173-25.874,29.73
		c-16.687,2.818-32.246,1.036-48.631,7.259c-14.418,5.476-24.883,19.861-34.434,31.311c9.589,7.131,18.18,13.66,25.03,23.572
		c6.857,9.921,8.622,22.216,14.305,32.666c12.013,22.087,28.859,38.304,47.004,55.349c37.886,35.591,60.659,77.361,76.821,126.423
		c4.365-4.626,10.859-8.679,17.381-6.097c7.451,2.95,10.7,6.018,17.589,0.207c12.166-10.261,18.777-20.224,34.637-25.544
		c6.025-2.021,12.725-3.434,18.047-6.914c3.34-2.185,6.945-2.885,6.581-6.993c-0.411-4.634-0.526-7.838,0.399-12.358
		c2.668-13.04,21.028-24.879,30.072-33.379c10.776-10.128,16.543-18.253,32.162-19.15c7.338-0.422,8.628-5.054,13.046-10.952
		c5.987-7.995,11.975-15.99,17.962-23.985c6.098-8.142-0.993-27.684,0.025-37.851c0.797-7.949,1.734-15.115,3.744-22.824
		c1.682-6.449-0.068-12.576-0.984-19.173c-2.164-15.589-1.658-31.395-10.561-44.494c-3.206-4.716-10.382-11.615-9.44-18.012
		c1.495-10.156,8.893-7.107,14.33-3.33c11.914,8.275,24.58,11.409,30.594,25.422c5.199,12.112,7.119,28.296,18.064,36.347
		c8.547,6.286,26.987,10.398,36.157,3.256c9.922-7.729,25.746-16.764,26.974-29.978c1.086-11.682,10.088-28.042,21.036-33.322
		c14.345-6.919,6.56,21.107,4.345,27.595c6.185-1.164,12.197-2.506,18.29-4.08c-1.84,5.207-3.681,10.413-5.521,15.62
		c5.479-6.251,10.958-12.501,16.438-18.752c3.47-3.958,12.493-5.265,17.075-7.639C878.882,381.024,907.729,358.871,906.9,378.023z"
		/>
	<path fill="none" stroke="#000000" stroke-width="3" stroke-linecap="round" stroke-linejoin="round" d="M800.998,401.336
		c3.238-9.152,10.924-28.351,22.242-30.398c12.59-2.278,5.203,21.284,2.8,28.341c117.182-22.073,184.354-152.084,132.596-260.206
		C906.186,29.504,757.613,1.565,668.525,83.754c-42.505,39.213-64.095,97.364-57.915,154.794
		c6.313,58.66,40.261,107.206,89.342,138.457C728.188,394.982,767.68,405.642,800.998,401.336z"/>
	<path fill="none" stroke="#000000" stroke-width="3" stroke-linecap="round" stroke-linejoin="round" d="M800.998,401.336
		c3.238-9.152,10.924-28.351,22.242-30.398c12.59-2.278,5.203,21.284,2.8,28.341c117.182-22.073,184.354-152.084,132.596-260.206
		C906.186,29.504,757.613,1.565,668.525,83.754c-42.505,39.213-64.095,97.364-57.915,154.794
		c6.313,58.66,40.261,107.206,89.342,138.457C728.188,394.982,767.68,405.642,800.998,401.336"/>
	
		<path fill-rule="evenodd" clip-rule="evenodd" stroke="#000000" stroke-width="3" stroke-linecap="round" stroke-linejoin="round" d="
		M793.871,104.967c20.778,2.569,17.779,22.762,12.316,37.154c19.342-5.452,39.063-8.167,58.278-14.008
		c15.001-4.559,30.002-9.119,45.003-13.678c4.475-1.36,8.949-2.72,13.424-4.08c2.583-0.785,5.703,7.795,6.951,9.978
		c-26.527,9.993-54.187,18.537-80.036,30.15c-24.338,10.935-33.846,41.001-29.913,66.231c4.37,28.042,15.718,53.95,25.445,80.489
		c5.812,15.854,11.623,31.708,17.435,47.562c4.401,12.009,15.978,10.668,26.702,8.749c0.022,3.509-24.374,16.953-25.336,15.396
		c-7.57-12.244-15.141-24.489-22.711-36.734c-10.271-16.613-20.541-33.226-30.813-49.839c-3.065-4.959-9.643-19.871-16.746-19.609
		c-6.524,0.24-12.896,14.569-15.847,19.286c-10.187,16.278-20.373,32.556-30.56,48.834c-7.841,12.53-15.683,25.062-23.524,37.592
		c-1.446,2.312-25.618-11.174-25.591-14.926c9.733,1.75,22.113,3.648,26.296-7.762c5.616-15.32,11.231-30.64,16.848-45.96
		c9.985-27.238,22.215-54.226,26.467-83.078c3.612-24.51-5.106-54.914-28.97-65.751c-26.124-11.865-54.156-20.504-81.01-30.63
		c5.766-11.82,4.944-10.324,17.061-6.683c15.52,4.664,31.04,9.328,46.56,13.992c19.824,5.958,40.098,8.904,60.037,14.479
		C775.968,127.77,773.214,107.58,793.871,104.967z"/>
	<path fill="none" stroke="#000000" stroke-width="3" stroke-linecap="round" stroke-linejoin="round" d="M793.871,104.967
		c20.778,2.569,17.779,22.762,12.316,37.154c19.342-5.452,39.063-8.167,58.278-14.008c15.001-4.559,30.002-9.119,45.003-13.678
		c4.475-1.36,8.949-2.72,13.424-4.08c2.583-0.785,5.703,7.795,6.951,9.978c-26.527,9.993-54.187,18.537-80.036,30.15
		c-24.338,10.935-33.846,41.001-29.913,66.231c4.37,28.042,15.718,53.95,25.445,80.489c5.812,15.854,11.623,31.708,17.435,47.562
		c4.401,12.009,15.978,10.668,26.702,8.749c0.022,3.509-24.374,16.953-25.336,15.396c-7.57-12.244-15.141-24.489-22.711-36.734
		c-10.271-16.613-20.541-33.226-30.813-49.839c-3.065-4.959-9.643-19.871-16.746-19.609c-6.524,0.24-12.896,14.569-15.847,19.286
		c-10.187,16.278-20.373,32.556-30.56,48.834c-7.841,12.53-15.683,25.062-23.524,37.592c-1.446,2.312-25.618-11.174-25.591-14.926
		c9.733,1.75,22.113,3.648,26.296-7.762c5.616-15.32,11.231-30.64,16.848-45.96c9.985-27.238,22.215-54.226,26.467-83.078
		c3.612-24.51-5.106-54.914-28.97-65.751c-26.124-11.865-54.156-20.504-81.01-30.63c5.766-11.82,4.944-10.324,17.061-6.683
		c15.52,4.664,31.04,9.328,46.56,13.992c19.824,5.958,40.098,8.904,60.037,14.479C775.968,127.77,773.214,107.58,793.871,104.967"/>
	
		<line fill="none" stroke="#000000" stroke-width="3" stroke-linecap="round" stroke-linejoin="round" x1="889.23" y1="62.294" x2="696.988" y2="62.294"/>
	
		<line fill="none" stroke="#000000" stroke-width="3" stroke-linecap="round" stroke-linejoin="round" x1="642.862" y1="113.577" x2="660.906" y2="113.577"/>
	
		<line fill="none" stroke="#000000" stroke-width="3" stroke-linecap="round" stroke-linejoin="round" x1="676.354" y1="113.823" x2="779.536" y2="113.823"/>
	
		<line fill="none" stroke="#000000" stroke-width="3" stroke-linecap="round" stroke-linejoin="round" x1="808.371" y1="113.823" x2="911.308" y2="113.823"/>
	
		<line fill="none" stroke="#000000" stroke-width="3" stroke-linecap="round" stroke-linejoin="round" x1="926.137" y1="113.823" x2="943.93" y2="113.823"/>
	
		<line fill="none" stroke="#000000" stroke-width="3" stroke-linecap="round" stroke-linejoin="round" x1="756.758" y1="165.602" x2="617.242" y2="165.602"/>
	
		<line fill="none" stroke="#000000" stroke-width="3" stroke-linecap="round" stroke-linejoin="round" x1="968.975" y1="165.602" x2="830.203" y2="165.602"/>
	
		<line fill="none" stroke="#000000" stroke-width="3" stroke-linecap="round" stroke-linejoin="round" x1="609.169" y1="217.09" x2="767.509" y2="217.254"/>
	
		<line fill="none" stroke="#000000" stroke-width="3" stroke-linecap="round" stroke-linejoin="round" x1="819.658" y1="217.09" x2="976.801" y2="217.09"/>
	
		<line fill="none" stroke="#000000" stroke-width="3" stroke-linecap="round" stroke-linejoin="round" x1="616.542" y1="268.991" x2="752.803" y2="268.991"/>
	
		<line fill="none" stroke="#000000" stroke-width="3" stroke-linecap="round" stroke-linejoin="round" x1="786.539" y1="268.991" x2="801.862" y2="268.991"/>
	
		<line fill="none" stroke="#000000" stroke-width="3" stroke-linecap="round" stroke-linejoin="round" x1="834.156" y1="268.991" x2="969.674" y2="268.991"/>
	
		<line fill="none" stroke="#000000" stroke-width="3" stroke-linecap="round" stroke-linejoin="round" x1="733.896" y1="320.52" x2="640.312" y2="320.52"/>
	
		<line fill="none" stroke="#000000" stroke-width="3" stroke-linecap="round" stroke-linejoin="round" x1="834.608" y1="320.52" x2="753.421" y2="320.52"/>
	
		<line fill="none" stroke="#000000" stroke-width="3" stroke-linecap="round" stroke-linejoin="round" x1="945.783" y1="320.398" x2="853.145" y2="320.398"/>
	
		<line fill="none" stroke="#000000" stroke-width="3" stroke-linecap="round" stroke-linejoin="round" x1="692.913" y1="372.505" x2="819.658" y2="372.669"/>
	
		<line fill="none" stroke="#000000" stroke-width="3" stroke-linecap="round" stroke-linejoin="round" x1="830.448" y1="372.669" x2="893.267" y2="372.505"/>
	<path fill="none" stroke="#000000" stroke-width="3" stroke-linecap="round" stroke-linejoin="round" d="M901.627,116.749
		c-19.687-41.912-58.113-82.108-107.756-81.682c-48.085,0.413-88.054,40.629-106.065,82.3"/>
	<path fill="none" stroke="#000000" stroke-width="3" stroke-linecap="round" stroke-linejoin="round" d="M682.614,129.64
		c-26.114,69.502-24.182,166.597,26.651,225.604"/>
	<path fill="none" stroke="#000000" stroke-width="3" stroke-linecap="round" stroke-linejoin="round" d="M906.899,128.898
		c25.416,70.537,24.905,166.157-26.485,226.18"/>
	<path fill="none" stroke="#000000" stroke-width="3" stroke-linecap="round" stroke-linejoin="round" d="M720.881,368.343
		c19.659,20.817,50.902,36.598,80.035,33.367"/>
	<path fill="none" stroke="#000000" stroke-width="3" stroke-linecap="round" stroke-linejoin="round" d="M827.155,395.817
		c16.384-5.262,32.177-16.948,43.661-29.573"/>
	<path fill="none" stroke="#000000" stroke-width="3" stroke-linecap="round" stroke-linejoin="round" d="M850.715,132.358
		c-5.134-31.739-17.58-91.011-55.879-97.138c-17.93-2.868-33.244,27.335-38.696,39.965c-7.941,18.397-13.122,38.248-16.354,57.996"
		/>
	<path fill="none" stroke="#000000" stroke-width="3" stroke-linecap="round" stroke-linejoin="round" d="M736.863,150.113
		c-5.766,52.422-5.173,103.402,2.922,155.539"/>
	<path fill="none" stroke="#000000" stroke-width="3" stroke-linecap="round" stroke-linejoin="round" d="M849.808,310.717
		c9.658-51.624,13.523-109.599,3.583-161.553"/>
	<path fill="none" stroke="#000000" stroke-width="3" stroke-linecap="round" stroke-linejoin="round" d="M746.05,333.248
		c7.262,24.724,20.995,73.896,54.948,68.007"/>
	<path fill="none" stroke="#000000" stroke-width="3" stroke-linecap="round" stroke-linejoin="round" d="M830.12,372.669
		c5.22-12.092,9.833-24.109,13.714-36.702"/>
	
		<line fill="none" stroke="#000000" stroke-width="3" stroke-linecap="round" stroke-linejoin="round" x1="793.54" y1="35.066" x2="793.54" y2="104.721"/>
	
		<line fill="none" stroke="#000000" stroke-width="3" stroke-linecap="round" stroke-linejoin="round" x1="793.788" y1="262.853" x2="793.788" y2="402.491"/>
</g>
</svg>
