<?xml version="1.0" encoding="UTF-8" standalone="no"?>
<!-- Created with Inkscape (http://www.inkscape.org/) -->

<svg
   xmlns:dc="http://purl.org/dc/elements/1.1/"
   xmlns:cc="http://creativecommons.org/ns#"
   xmlns:rdf="http://www.w3.org/1999/02/22-rdf-syntax-ns#"
   xmlns:svg="http://www.w3.org/2000/svg"
   xmlns="http://www.w3.org/2000/svg"
   xmlns:sodipodi="http://sodipodi.sourceforge.net/DTD/sodipodi-0.dtd"
   xmlns:inkscape="http://www.inkscape.org/namespaces/inkscape"
   width="210mm"
   height="297mm"
   viewBox="0 0 744.09448819 1052.3622047"
   id="svg2"
   version="1.1"
   inkscape:version="0.91 r13725"
   sodipodi:docname="Split scissors.svg">
  <defs
     id="defs4" />
  <sodipodi:namedview
     id="base"
     pagecolor="#ffffff"
     bordercolor="#666666"
     borderopacity="1.0"
     inkscape:pageopacity="0.0"
     inkscape:pageshadow="2"
     inkscape:zoom="0.7"
     inkscape:cx="329.19617"
     inkscape:cy="603.15257"
     inkscape:document-units="px"
     inkscape:current-layer="layer1"
     showgrid="false"
     inkscape:window-width="1920"
     inkscape:window-height="1017"
     inkscape:window-x="-8"
     inkscape:window-y="-8"
     inkscape:window-maximized="1" />
  <metadata
     id="metadata7">
    <rdf:RDF>
      <cc:Work
         rdf:about="">
        <dc:format>image/svg+xml</dc:format>
        <dc:type
           rdf:resource="http://purl.org/dc/dcmitype/StillImage" />
        <dc:title></dc:title>
      </cc:Work>
    </rdf:RDF>
  </metadata>
  <g
     inkscape:label="Capa 1"
     inkscape:groupmode="layer"
     id="layer1">
    <path
       style="opacity:1;fill:#000000;fill-opacity:1;fill-rule:nonzero;stroke:none;stroke-width:4.87200022;stroke-linecap:butt;stroke-linejoin:round;stroke-miterlimit:4;stroke-dasharray:none;stroke-dashoffset:0"
       d="M 102.85742 212.36133 L 102.85742 692.36133 L 265.71484 692.36133 L 345.74023 502.44336 L 329.66211 508.59375 C 286.74667 525.04553 267.59995 556.75779 246.25977 579.70508 C 246.20672 579.76908 246.20178 579.90266 246.14648 579.97266 C 228.32966 601.76091 198.65438 606.33488 182.41992 588.70898 C 168.36274 575.51554 168.31434 550.86173 177.13281 530.62109 L 177.13477 530.62305 C 179.22037 526.58661 181.53963 521.56322 184.58594 517.29688 C 199.24993 494.7546 227.34234 483.93713 245.39648 497.48633 C 252.22468 502.61113 255.21328 507.74199 256.98828 511.77734 C 258.76336 515.81265 261.01047 521.28441 261.57812 525.78711 C 261.57812 525.78711 265.46708 522.78063 267.15039 521.6543 C 270.51696 519.40198 275.29355 515.02521 281.31641 509.28125 C 297.06512 494.26439 315.99641 477.26904 335.21094 462.09961 C 329.19911 408.34827 323.24575 354.55315 317.11719 300.84766 C 315.89264 277.34047 321.63782 245.28131 348.32031 226.39844 L 375.28516 432.32422 L 467.9707 212.36133 L 102.85742 212.36133 z M 222.40625 515.71094 C 218.54724 515.76864 214.44438 516.80578 210.28906 519.03125 C 202.89255 522.9925 196.43048 531.29431 192.99805 540.54297 C 189.56815 549.7857 189.16252 559.55566 193.85938 566.60742 L 194.07422 566.69922 C 199.29491 576.23494 209.18829 578.32822 219.20312 575.16992 C 229.21777 572.0117 238.71112 563.58113 242.81641 552.54102 L 242.92969 552.27148 C 247.97737 540.46872 245.4801 529.55124 238.7793 522.58789 C 234.59132 518.23577 228.83793 515.61477 222.40625 515.71094 z "
       id="path4141" />
    <path
       style="opacity:1;fill:#000000;fill-opacity:1;fill-rule:nonzero;stroke:none;stroke-width:4.87200022;stroke-linecap:butt;stroke-linejoin:round;stroke-miterlimit:4;stroke-dasharray:none;stroke-dashoffset:0"
       d="m 455.11355,270.93276 -92.68554,219.96289 0.0879,0.66601 166.27929,-123.21484 c 2.43286,16.36334 -2.15082,51.43246 -32.53515,74.67188 -30.38306,23.23643 -85.35273,65.28545 -127.73633,97.61328 3.54871,29.3552 3.25303,53.45971 3.29883,69.93164 0.023,8.30919 0.20213,14.80983 0.90625,18.78711 0.41053,2.63609 0.64296,4.41038 1.37695,7.58984 0,0 3.86796,-2.98769 5.05469,-3.58398 1.18681,-0.5964 2.6559,-1.67486 4.72851,-2.7461 4.14601,-2.14236 10.26036,-3.75962 21.33985,-2.34179 22.45722,2.87402 33.79952,31.27328 27.67578,57.46093 -0.0188,0.0867 -0.0978,0.18178 -0.11524,0.26758 -4.73268,26.10042 -26.3292,51.90701 -49.84375,50.81055 -0.0754,0.004 -0.14244,-0.0978 -0.21484,-0.0918 -23.82046,0.28853 -41.06438,-24.03629 -37.67773,-51.88281 -0.002,-0.0823 0.11928,-0.19518 0.11328,-0.26758 1.79823,-31.29679 11.44027,-66.92212 -6.375,-109.31445 l -5.88867,-14.24414 -0.0195,0.008 -80.02539,189.91797 377.14258,0 0,-480 -174.88672,0 z m -63.60742,379.41406 c -9.65248,-0.0193 -19.24109,5.77931 -24.26758,17.59375 -0.25081,0.50381 -0.58784,1.3387 -0.91406,2.14844 -4.28879,10.49931 -3.23718,22.8017 1.50195,31.73047 4.7385,8.9286 12.61999,14.33187 22.78125,11.59765 l 0.32813,-0.17773 c 8.34013,-1.48466 15.19244,-8.20108 19.47851,-17.0918 4.28541,-8.89013 5.66537,-19.66036 3.41016,-27.73633 -3.38253,-12.11337 -12.66613,-18.04545 -22.31836,-18.06445 z"
       id="rect4136"
       inkscape:connector-curvature="0" />
  </g>
</svg>
